D:\school\WTK\thesis\model\3dpredictsim\Results\debug_batch\Pog_s1_tmt_aCst_d05_k500_ig24_act_TTC_GRF.mot
nRows=20
nColumns=19

name D:\school\WTK\thesis\model\3dpredictsim\Results\debug_batch\Pog_s1_tmt_aCst_d05_k500_ig24_act_TTC_GRF.mot
datacolumns 19
datarows 20
range 0.6327699870 0.8732225821
endheader
time 	ground_force_vx	ground_force_vy	ground_force_vz	ground_force_px	ground_force_py	ground_force_pz	1_ground_force_vx	1_ground_force_vy	1_ground_force_vz	1_ground_force_px	1_ground_force_py	1_ground_force_pz	ground_torque_x	ground_torque_y	ground_torque_z	1_ground_torque_x	1_ground_torque_y	1_ground_torque_z
        0.6327699870	      106.0194910384	      435.5099120905	        0.4310480480	        0.4292968750	        0.0000000000	        0.0331733580	      -30.0745391457	       24.4003882866	       -8.5333114848	        0.9990859073	        0.0000000000	       -0.0532273070	        0.0000000000	        0.0000000000	        0.0000000000	        0.0000000000	        0.0000000000	        0.0000000000	
        0.6454253868	       72.6099005347	      333.1756658136	        6.3914509210	        0.4375692287	        0.0000000000	        0.0298258937	     -101.6429027212	      108.4141134851	      -44.2127399494	        1.0064874470	        0.0000000000	       -0.0512589201	        0.0000000000	        0.0000000000	        0.0000000000	        0.0000000000	        0.0000000000	        0.0000000000	
        0.6580807865	       38.6434197579	      223.3432098282	       13.6184283432	        0.4513412259	        0.0000000000	        0.0238899725	      -54.3855114648	      305.0037139940	      -15.1838324464	        1.0115268246	        0.0000000000	       -0.0492020598	        0.0000000000	        0.0000000000	        0.0000000000	        0.0000000000	        0.0000000000	        0.0000000000	
        0.6707361863	       22.7295549021	      177.6335758846	       15.3849115975	        0.4557244570	        0.0000000000	        0.0217410039	      -62.5998182315	      522.9920012491	        6.0800226850	        1.0144236151	        0.0000000000	       -0.0489958191	        0.0000000000	        0.0000000000	        0.0000000000	        0.0000000000	        0.0000000000	        0.0000000000	
        0.6833915860	       17.1420012179	      132.6632622332	       17.2441772495	        0.4560580063	        0.0000000000	        0.0219618359	     -113.6372774232	      743.9785489388	       16.7188776994	        1.0231887195	        0.0000000000	       -0.0507983290	        0.0000000000	        0.0000000000	        0.0000000000	        0.0000000000	        0.0000000000	        0.0000000000	
        0.6960469858	        4.1314278837	       74.9177739762	       17.1154757865	        0.4559393918	        0.0000000000	        0.0224403534	     -150.9252868842	      890.1954644343	       20.6016319383	        1.0317959843	        0.0000000000	       -0.0526947614	        0.0000000000	        0.0000000000	        0.0000000000	        0.0000000000	        0.0000000000	        0.0000000000	
        0.7087023855	       -9.4048017748	       14.2948410866	        4.6074642576	        0.4519980862	        0.0000000000	        0.0223261643	     -156.4318954024	      915.0597431961	       21.6751654671	        1.0373442402	        0.0000000000	       -0.0537446493	        0.0000000000	        0.0000000000	        0.0000000000	        0.0000000000	        0.0000000000	        0.0000000000	
        0.7213577852	        0.5373475987	       -0.4321038396	        0.0201486319	        0.0000000000	        0.0000000000	        0.0000000000	     -140.1793939230	      873.5787344695	       20.9974081209	        1.0414476738	        0.0000000000	       -0.0543531685	        0.0000000000	        0.0000000000	        0.0000000000	        0.0000000000	        0.0000000000	        0.0000000000	
        0.7340131850	       -6.6747572166	        4.6863312114	       -0.4073541280	        0.0000000000	        0.0000000000	        0.0000000000	     -123.9349940568	      811.6534314033	       19.5566883699	        1.0453183242	        0.0000000000	       -0.0546528518	        0.0000000000	        0.0000000000	        0.0000000000	        0.0000000000	        0.0000000000	        0.0000000000	
        0.7466685847	       -5.3483829773	        3.2898345771	       -0.4231050848	        0.0000000000	        0.0000000000	        0.0000000000	     -109.5516581255	      764.1733993089	       18.2313550412	        1.0493566773	        0.0000000000	       -0.0546664539	        0.0000000000	        0.0000000000	        0.0000000000	        0.0000000000	        0.0000000000	        0.0000000000	
        0.7593239845	       -3.5138963748	        1.9856119602	       -0.2942035747	        0.0000000000	        0.0000000000	        0.0000000000	      -97.1554183468	      729.1121847771	       18.1990559982	        1.0539116884	        0.0000000000	       -0.0544896663	        0.0000000000	        0.0000000000	        0.0000000000	        0.0000000000	        0.0000000000	        0.0000000000	
        0.7719793842	       -2.6177708767	        1.3846339091	       -0.2245791204	        0.0000000000	        0.0000000000	        0.0000000000	      -86.9807690336	      702.4566026873	       18.4182444950	        1.0590547173	        0.0000000000	       -0.0541277567	        0.0000000000	        0.0000000000	        0.0000000000	        0.0000000000	        0.0000000000	        0.0000000000	
        0.7846347839	       -1.9251492282	        0.9744983501	       -0.1572031261	        0.0000000000	        0.0000000000	        0.0000000000	      -76.8791409425	      677.9588821353	       19.1401168812	        1.0641586469	        0.0000000000	       -0.0537458069	        0.0000000000	        0.0000000000	        0.0000000000	        0.0000000000	        0.0000000000	        0.0000000000	
        0.7972901837	       -1.3580062399	        0.6611647050	       -0.1082285255	        0.0000000000	        0.0000000000	        0.0000000000	      -66.8898906888	      654.8041093997	       19.7485307525	        1.0689684082	        0.0000000000	       -0.0534559828	        0.0000000000	        0.0000000000	        0.0000000000	        0.0000000000	        0.0000000000	        0.0000000000	
        0.8099455834	       -1.0069161210	        0.4747291411	       -0.0785507726	        0.0000000000	        0.0000000000	        0.0000000000	      -57.7631962732	      634.5177877031	       20.2035775239	        1.0736703016	        0.0000000000	       -0.0532406287	        0.0000000000	        0.0000000000	        0.0000000000	        0.0000000000	        0.0000000000	        0.0000000000	
        0.8226009832	       -0.8082761740	        0.3708248309	       -0.0617003892	        0.0000000000	        0.0000000000	        0.0000000000	      -49.7284958669	      617.3330234944	       20.4385964054	        1.0783532032	        0.0000000000	       -0.0530700354	        0.0000000000	        0.0000000000	        0.0000000000	        0.0000000000	        0.0000000000	        0.0000000000	
        0.8352563829	       -0.7055300313	        0.3163310002	       -0.0526004240	        0.0000000000	        0.0000000000	        0.0000000000	      -42.9916830174	      603.3350772284	       20.4398759457	        1.0830132357	        0.0000000000	       -0.0529186427	        0.0000000000	        0.0000000000	        0.0000000000	        0.0000000000	        0.0000000000	        0.0000000000	
        0.8479117826	       -0.6701646181	        0.2942370480	       -0.0487101137	        0.0000000000	        0.0000000000	        0.0000000000	      -36.9315070740	      592.9425395136	       20.2385372101	        1.0878230807	        0.0000000000	       -0.0527513662	        0.0000000000	        0.0000000000	        0.0000000000	        0.0000000000	        0.0000000000	        0.0000000000	
        0.8605671824	       -0.6961283810	        0.2996087869	       -0.0492024180	        0.0000000000	        0.0000000000	        0.0000000000	      -31.6702441080	      585.5192066679	       19.8987795212	        1.0929396251	        0.0000000000	       -0.0525249652	        0.0000000000	        0.0000000000	        0.0000000000	        0.0000000000	        0.0000000000	        0.0000000000	
        0.8732225821	       -0.7764115517	        0.3279026175	       -0.0529731898	        0.0000000000	        0.0000000000	        0.0000000000	      -27.3519970020	      580.2058894695	       19.4967663219	        1.0982926632	        0.0000000000	       -0.0522250937	        0.0000000000	        0.0000000000	        0.0000000000	        0.0000000000	        0.0000000000	        0.0000000000	
